<svg id="Layer_1" data-name="Layer 1" xmlns="http://www.w3.org/2000/svg" viewBox="0 0 239.11 247.1"><defs><style>.cls-1{fill:#ae9d63;}.cls-2,.cls-3{fill:#fff;}.cls-3{opacity:0.2;}.cls-4{font-size:7.8px;font-family:NoeText-Book, NoeText Book;}.cls-4,.cls-6,.cls-7,.cls-8,.cls-9{fill:#25263d;}.cls-10,.cls-11,.cls-12,.cls-13,.cls-5{fill:none;}.cls-10,.cls-11,.cls-13,.cls-5{stroke:#ae9d63;}.cls-5{stroke-miterlimit:10;stroke-width:0.29px;}.cls-6{font-size:3.13px;}.cls-6,.cls-7,.cls-8,.cls-9{font-family:AktivGrotesk-Bold, AktivGrotesk Bold;font-weight:700;}.cls-7{font-size:3.14px;}.cls-8{font-size:3.15px;}.cls-9{font-size:3.33px;}.cls-10,.cls-11,.cls-13{stroke-linecap:round;stroke-linejoin:round;stroke-width:0.36px;}.cls-11{stroke-dasharray:3.37 6.74;}.cls-13{stroke-dasharray:3.28 6.55;}.cls-14{fill:#d8ccae;}</style></defs><title>report_bullseye</title><rect class="cls-1" width="239.11" height="247.1"/><path class="cls-2" d="M62.65-6554v111.72H174.36A113.89,113.89,0,0,0,62.65-6554Z" transform="translate(59.08 6562.1)"/><path class="cls-2" d="M62.65-6528.42v86.1h86.1A88.27,88.27,0,0,0,62.65-6528.42Z" transform="translate(59.08 6562.1)"/><path class="cls-2" d="M62.65-6502.93v60.61h60.61A62.79,62.79,0,0,0,62.65-6502.93Z" transform="translate(59.08 6562.1)"/><path class="cls-2" d="M62.65-6476.75v34.43H97.08A36.64,36.64,0,0,0,62.65-6476.75Z" transform="translate(59.08 6562.1)"/><path class="cls-2" d="M174.36-6438H62.65v111.72A113.89,113.89,0,0,0,174.36-6438Z" transform="translate(59.08 6562.1)"/><path class="cls-2" d="M148.74-6438H62.65v86.1A88.27,88.27,0,0,0,148.74-6438Z" transform="translate(59.08 6562.1)"/><path class="cls-2" d="M123.25-6438H62.65v60.61A62.79,62.79,0,0,0,123.25-6438Z" transform="translate(59.08 6562.1)"/><path class="cls-2" d="M97.08-6438H62.65v34.43A36.65,36.65,0,0,0,97.08-6438Z" transform="translate(59.08 6562.1)"/><path class="cls-2" d="M-53.37-6438A113.89,113.89,0,0,0,58.35-6326.3V-6438Z" transform="translate(59.08 6562.1)"/><path class="cls-2" d="M-27.75-6438a88.27,88.27,0,0,0,86.1,86.1V-6438Z" transform="translate(59.08 6562.1)"/><path class="cls-2" d="M-2.26-6438a62.79,62.79,0,0,0,60.61,60.61V-6438Z" transform="translate(59.08 6562.1)"/><path class="cls-2" d="M23.92-6438a36.64,36.64,0,0,0,34.43,34.43V-6438Z" transform="translate(59.08 6562.1)"/><path class="cls-2" d="M-53.37-6442.32H58.35V-6554A113.89,113.89,0,0,0-53.37-6442.32Z" transform="translate(59.08 6562.1)"/><path class="cls-3" d="M-27.75-6442.32h86.1v-86.1A88.27,88.27,0,0,0-27.75-6442.32Z" transform="translate(59.08 6562.1)"/><path class="cls-2" d="M-2.26-6442.32H58.35v-60.61A62.79,62.79,0,0,0-2.26-6442.32Z" transform="translate(59.08 6562.1)"/><path class="cls-2" d="M23.92-6442.32H58.35v-34.43A36.64,36.64,0,0,0,23.92-6442.32Z" transform="translate(59.08 6562.1)"/><text class="cls-4" transform="matrix(0.61, -0.79, 0.79, 0.61, 23.11, 47.32)">C</text><text class="cls-4" transform="matrix(0.64, -0.77, 0.77, 0.64, 25.8, 43.85)">u</text><text class="cls-4" transform="matrix(0.66, -0.75, 0.75, 0.66, 28.53, 40.59)">s</text><text class="cls-4" transform="matrix(0.68, -0.73, 0.73, 0.68, 30.57, 38.3)">t</text><text class="cls-4" transform="matrix(0.7, -0.71, 0.71, 0.7, 32.26, 36.46)">o</text><text class="cls-4" transform="translate(35.19 33.45) rotate(-42.82)">m</text><text class="cls-4" transform="translate(39.94 29.09) rotate(-40.32)">e</text><text class="cls-4" transform="translate(42.91 26.58) rotate(-38.76)">r</text><text class="cls-4" transform="translate(44.86 25.01) rotate(-37.41)">s</text><text class="cls-4" transform="matrix(0.79, 0.61, -0.61, 0.79, 191.54, 22.93)">E</text><text class="cls-4" transform="translate(194.55 25.2) rotate(39.92)">m</text><text class="cls-4" transform="matrix(0.74, 0.68, -0.68, 0.74, 199.48, 29.35)">p</text><text class="cls-4" transform="translate(202.73 32.35) rotate(44.06)">l</text><text class="cls-4" transform="matrix(0.7, 0.71, -0.71, 0.7, 204.02, 33.58)">o</text><text class="cls-4" transform="matrix(0.68, 0.74, -0.74, 0.68, 206.96, 36.58)">y</text><text class="cls-4" transform="matrix(0.65, 0.76, -0.76, 0.65, 209.35, 39.18)">e</text><text class="cls-4" transform="translate(211.89 42.11) rotate(51.07)">e</text><text class="cls-4" transform="translate(214.31 45.12) rotate(52.75)">s</text><text class="cls-4" transform="translate(214.66 198.3) rotate(128.67)">S</text><text class="cls-4" transform="translate(212.29 201.27) rotate(130.62)">u</text><text class="cls-4" transform="translate(209.53 204.49) rotate(132.72)">p</text><text class="cls-4" transform="translate(206.55 207.73) rotate(134.85)">p</text><text class="cls-4" transform="matrix(-0.72, 0.69, -0.69, -0.72, 203.43, 210.83)">l</text><text class="cls-4" transform="matrix(-0.73, 0.68, -0.68, -0.73, 202.11, 212.1)">i</text><text class="cls-4" transform="matrix(-0.75, 0.66, -0.66, -0.75, 200.82, 213.31)">e</text><text class="cls-4" transform="translate(197.89 215.88) rotate(140.17)">r</text><text class="cls-4" transform="matrix(-0.78, 0.62, -0.62, -0.78, 195.97, 217.48)">s</text><text class="cls-4" transform="translate(45.51 219.38) rotate(-141.14)">C</text><text class="cls-4" transform="translate(42.03 216.57) rotate(-139.01)">h</text><text class="cls-4" transform="matrix(-0.73, -0.68, 0.68, -0.73, 38.79, 213.76)">a</text><text class="cls-4" transform="translate(36.07 211.23) rotate(-135.13)">n</text><text class="cls-4" transform="matrix(-0.68, -0.73, 0.73, -0.68, 33.05, 208.22)">n</text><text class="cls-4" transform="translate(30.11 205.08) rotate(-131.07)">e</text><text class="cls-4" transform="matrix(-0.64, -0.77, 0.77, -0.64, 27.59, 202.17)">l</text><text class="cls-4" transform="matrix(-0.62, -0.78, 0.78, -0.62, 26.41, 200.76)">s</text><path class="cls-5" d="M174.35-6442.22A113.89,113.89,0,0,0,62.62-6554l-2.15,0" transform="translate(59.08 6562.1)"/><path class="cls-5" d="M148.72-6442.32a88.27,88.27,0,0,0-86.1-86.1l-2.15,0" transform="translate(59.08 6562.1)"/><path class="cls-5" d="M123.24-6442.32a62.8,62.8,0,0,0-60.61-60.61q-1.07,0-2.15,0" transform="translate(59.08 6562.1)"/><path class="cls-5" d="M97.06-6442.32a36.65,36.65,0,0,0-34.44-34.44q-1.06-.06-2.14-.06" transform="translate(59.08 6562.1)"/><path class="cls-5" d="M60.48-6326.28l2.15,0a113.89,113.89,0,0,0,111.73-111.83" transform="translate(59.08 6562.1)"/><path class="cls-5" d="M60.48-6351.9l2.15,0a88.27,88.27,0,0,0,86.1-86.1" transform="translate(59.08 6562.1)"/><path class="cls-5" d="M60.48-6377.37q1.08,0,2.15,0A62.8,62.8,0,0,0,123.24-6438" transform="translate(59.08 6562.1)"/><path class="cls-5" d="M60.48-6403.52q1.08,0,2.15-.06A36.65,36.65,0,0,0,97.06-6438" transform="translate(59.08 6562.1)"/><path class="cls-5" d="M-53.4-6438A113.89,113.89,0,0,0,58.33-6326.3l2.15,0" transform="translate(59.08 6562.1)"/><path class="cls-5" d="M-27.77-6438a88.27,88.27,0,0,0,86.1,86.1l2.15,0" transform="translate(59.08 6562.1)"/><path class="cls-5" d="M-2.28-6438a62.8,62.8,0,0,0,60.61,60.61q1.07,0,2.15,0" transform="translate(59.08 6562.1)"/><path class="cls-5" d="M23.89-6438a36.65,36.65,0,0,0,34.44,34.44q1.07.06,2.15.06" transform="translate(59.08 6562.1)"/><path class="cls-5" d="M60.48-6554.06l-2.15,0A113.89,113.89,0,0,0-53.4-6442.32" transform="translate(59.08 6562.1)"/><path class="cls-5" d="M60.48-6528.44l-2.15,0a88.27,88.27,0,0,0-86.1,86.1" transform="translate(59.08 6562.1)"/><path class="cls-5" d="M60.48-6503q-1.08,0-2.15,0a62.8,62.8,0,0,0-60.61,60.61" transform="translate(59.08 6562.1)"/><path class="cls-5" d="M60.48-6476.82q-1.08,0-2.15.06a36.65,36.65,0,0,0-34.44,34.44" transform="translate(59.08 6562.1)"/><text class="cls-6" transform="translate(125.88 13.8) rotate(4.49)">D</text><text class="cls-6" transform="translate(127.96 13.97) rotate(5.23)">I</text><text class="cls-6" transform="translate(128.69 14.03) rotate(5.96)">G</text><text class="cls-6" transform="matrix(0.99, 0.12, -0.12, 0.99, 130.71, 14.25)">I</text><text class="cls-6" transform="translate(131.43 14.33) rotate(7.29)">T</text><text class="cls-6" transform="translate(132.75 14.5) rotate(8.09)">A</text><text class="cls-6" transform="matrix(0.99, 0.16, -0.16, 0.99, 134.62, 14.77)">L</text><text class="cls-6" transform="translate(136.07 15) rotate(9.54)"> </text><text class="cls-6" transform="translate(136.61 15.08) rotate(10.07)">T</text><text class="cls-6" transform="translate(138.13 15.35) rotate(10.93)">R</text><text class="cls-6" transform="translate(139.79 15.67) rotate(11.89)">A</text><text class="cls-6" transform="translate(141.65 16.06) rotate(12.94)">N</text><text class="cls-6" transform="translate(143.66 16.53) rotate(13.9)">S</text><text class="cls-6" transform="translate(145.15 16.9) rotate(14.72)">F</text><text class="cls-6" transform="translate(146.62 17.28) rotate(15.7)">O</text><text class="cls-6" transform="translate(148.69 17.86) rotate(16.72)">R</text><text class="cls-6" transform="matrix(0.95, 0.31, -0.31, 0.95, 150.28, 18.34)">M</text><text class="cls-6" transform="translate(152.64 19.1) rotate(18.99)">A</text><text class="cls-6" transform="matrix(0.94, 0.34, -0.34, 0.94, 154.21, 19.64)">T</text><text class="cls-6" transform="translate(155.66 20.16) rotate(20.4)">I</text><text class="cls-6" transform="translate(156.36 20.42) rotate(21.17)">O</text><text class="cls-6" transform="translate(158.36 21.19) rotate(22.29)">N</text><text class="cls-7" transform="translate(126.32 39.34) rotate(5.6)">E</text><text class="cls-7" transform="matrix(0.99, 0.12, -0.12, 0.99, 127.85, 39.49)">X</text><text class="cls-7" transform="translate(129.62 39.7) rotate(7.94)">P</text><text class="cls-7" transform="translate(131.26 39.93) rotate(9.05)">E</text><text class="cls-7" transform="translate(132.79 40.17) rotate(10.17)">R</text><text class="cls-7" transform="translate(134.42 40.47) rotate(11)">I</text><text class="cls-7" transform="translate(135.17 40.61) rotate(11.81)">E</text><text class="cls-7" transform="translate(136.67 40.92) rotate(13.07)">N</text><text class="cls-7" transform="translate(138.66 41.38) rotate(14.41)">C</text><text class="cls-7" transform="translate(140.4 41.83) rotate(15.57)">E</text><text class="cls-7" transform="translate(141.9 42.25) rotate(16.34)"> </text><text class="cls-7" transform="translate(142.51 42.43) rotate(17.1)">S</text><text class="cls-7" transform="matrix(0.95, 0.31, -0.31, 0.95, 143.99, 42.88)">T</text><text class="cls-7" transform="translate(145.47 43.37) rotate(19.31)">R</text><text class="cls-7" transform="translate(147.06 43.92) rotate(20.57)">A</text><text class="cls-7" transform="translate(148.61 44.51) rotate(21.61)">T</text><text class="cls-7" transform="translate(150.05 45.08) rotate(22.69)">E</text><text class="cls-7" transform="translate(151.48 45.67) rotate(23.94)">G</text><text class="cls-7" transform="translate(153.33 46.49) rotate(25.22)">Y</text><text class="cls-8" transform="matrix(0.99, 0.14, -0.14, 0.99, 126.76, 65.12)">B</text><text class="cls-8" transform="translate(128.45 65.36) rotate(9.77)">R</text><text class="cls-8" transform="translate(130.09 65.64) rotate(11.56)">A</text><text class="cls-8" transform="translate(131.97 66.02) rotate(13.58)">N</text><text class="cls-8" transform="translate(133.97 66.5) rotate(15.68)">D</text><text class="cls-8" transform="translate(135.96 67.07) rotate(17.06)"> </text><text class="cls-8" transform="translate(136.59 67.26) rotate(18.16)">S</text><text class="cls-8" transform="matrix(0.94, 0.34, -0.34, 0.94, 138.07, 67.75)">T</text><text class="cls-8" transform="matrix(0.93, 0.36, -0.36, 0.93, 139.53, 68.27)">R</text><text class="cls-8" transform="matrix(0.92, 0.39, -0.39, 0.92, 141.1, 68.88)">A</text><text class="cls-8" transform="translate(142.64 69.54) rotate(24.72)">T</text><text class="cls-8" transform="matrix(0.9, 0.44, -0.44, 0.9, 144.04, 70.18)">E</text><text class="cls-8" transform="translate(145.42 70.86) rotate(28.08)">G</text><text class="cls-8" transform="translate(147.2 71.82) rotate(29.94)">Y</text><text class="cls-9" transform="translate(127.58 90.93) rotate(16.21)">B</text><text class="cls-9" transform="matrix(0.94, 0.34, -0.34, 0.94, 129.28, 91.42)">U</text><text class="cls-9" transform="translate(131.27 92.14) rotate(23.15)">S</text><text class="cls-9" transform="translate(132.74 92.78) rotate(25.29)">I</text><text class="cls-9" transform="translate(133.47 93.1) rotate(27.99)">N</text><text class="cls-9" transform="translate(135.35 94.11) rotate(31.37)">E</text><text class="cls-9" transform="matrix(0.83, 0.56, -0.56, 0.83, 136.74, 94.96)">S</text><text class="cls-9" transform="translate(138.06 95.85) rotate(37.18)">S</text><text class="cls-9" transform="translate(139.36 96.85) rotate(39.27)"> </text><text class="cls-9" transform="matrix(0.75, 0.66, -0.66, 0.75, 139.88, 97.27)">S</text><text class="cls-9" transform="translate(141.09 98.33) rotate(44.23)">T</text><text class="cls-9" transform="translate(142.27 99.47) rotate(47.31)">R</text><text class="cls-9" transform="matrix(0.63, 0.77, -0.77, 0.63, 143.47, 100.76)">A</text><text class="cls-9" transform="translate(144.59 102.12) rotate(53.51)">T</text><text class="cls-9" transform="matrix(0.55, 0.83, -0.83, 0.55, 145.54, 103.41)">E</text><text class="cls-9" transform="translate(146.44 104.75) rotate(59.75)">G</text><text class="cls-9" transform="translate(147.51 106.6) rotate(63.32)">Y</text><line class="cls-10" x1="117.43" y1="119.78" x2="115.9" y2="119.19"/><line class="cls-11" x1="109.61" y1="116.77" x2="18.4" y2="81.64"/><line class="cls-10" x1="15.25" y1="80.43" x2="13.73" y2="79.84"/><line class="cls-12" x1="121.73" y1="124.08" x2="121.73" y2="124.08"/><line class="cls-13" x1="226.83" y1="160.27" x2="121.73" y2="124.08"/><line class="cls-13" x1="201.37" y1="200.82" x2="121.73" y2="124.08"/><path class="cls-14" d="M86.78-6414.73l18.81,18.25s6.4-6.65,9.51-12.7c2.78-5.41,3-6.08,3-6.08l.31-5.46-23.73-6.55a55,55,0,0,1-3.77,6.38,9.53,9.53,0,0,1-4.1,3.57Z" transform="translate(59.08 6562.1)"/><path class="cls-1" d="M93.39-6428.62s-.75,1.91-2.42,5.19a40,40,0,0,1-4.19,5.88L106.19-6400a54.68,54.68,0,0,0,6.75-9.15,72,72,0,0,0,5.45-11.55Z" transform="translate(59.08 6562.1)"/><path class="cls-14" d="M-21.63-6472.59l22.72,7.45.86,2.17s-1.51,2.77-2.92,9.8c-1.62,8-1.29,10.85-1.29,10.85H-27.75l-1.72-3.47c.15-2.77,2.35-6.66,3.39-11.77A90.61,90.61,0,0,1-21.63-6472.59Z" transform="translate(59.08 6562.1)"/><path class="cls-1" d="M-22.05-6475.76l23.14,10.63s-1.62,2.7-3.34,9.66c-2,8-1.75,10.79-1.75,10.79l-25.47-1.1a83.84,83.84,0,0,1,2.32-15.15A90.61,90.61,0,0,1-22.05-6475.76Z" transform="translate(59.08 6562.1)"/></svg>