<?xml version="1.0" encoding="utf-8"?>
<!-- Generator: Adobe Illustrator 21.1.0, SVG Export Plug-In . SVG Version: 6.00 Build 0)  -->
<svg version="1.1" id="Layer_1" xmlns="http://www.w3.org/2000/svg" xmlns:xlink="http://www.w3.org/1999/xlink" x="0px" y="0px"
	 viewBox="0 0 35.5 36.4" style="enable-background:new 0 0 35.5 36.4;" xml:space="preserve">
<style type="text/css">
	.st0{fill:#FFFFFF;}
	.st1{fill:none;stroke:#AE9D63;stroke-linecap:round;stroke-linejoin:round;stroke-miterlimit:10;}
</style>
<g>
	<g>
		<circle class="st0" cx="17.8" cy="18.2" r="16.8"/>
	</g>
	<path class="st1" d="M25.7,17.7c-8.3-1-10.5-7.9-10.5-8c0-0.1-0.1-0.1-0.1-0.1c-0.1,0-0.1,0-0.2,0c-2.2,0.8-3.9,2.5-4.8,4.7
		C10,14.4,7.8,18,7.4,18.8c-0.1,0.3-0.1,0.6,0.1,0.9c0.4,0.4,1.2,0.7,2,0.6v1.4c0,2.1,1.7,3.8,3.8,3.8h1.5c0,0.9-0.1,1.7-0.3,2.5
		c-0.1,0.5,0,1,0.3,1.3c0.3,0.4,0.7,0.6,1.2,0.6c0.6,0,1.3,0,1.9,0c0.3,0,0.7,0,0.9,0c0.9,0,1.8-0.5,2.2-1.3l3.7-7.1
		c0.6-1,1.1-3.4,1.1-3.5c0-0.1,0-0.1,0-0.2C25.8,17.7,25.8,17.7,25.7,17.7z"/>
	<circle class="st1" cx="14" cy="17" r="1"/>
	<g>
		<path class="st1" d="M21.7,10.9C21.7,10.9,21.7,10.9,21.7,10.9l-0.3,1c0,0.1-0.1,0.2-0.2,0.2l-0.6,0.5c0,0-0.1,0.1-0.1,0.2
			c0,0.1,0,0.2,0.1,0.2l0.6,0.5c0.1,0.1,0.1,0.1,0.2,0.2l0.3,0.9c0,0,0,0,0,0c0,0,0,0,0,0l0.3-0.9c0-0.1,0.1-0.2,0.2-0.2l0.6-0.5
			c0,0,0.1-0.1,0.1-0.2c0-0.1,0-0.2-0.1-0.2l-0.6-0.5C22.1,12,22,11.9,22,11.8L21.7,10.9L21.7,10.9C21.7,10.9,21.7,10.9,21.7,10.9z"
			/>
	</g>
	<circle class="st1" cx="25.3" cy="12.6" r="0.2"/>
	<circle class="st1" cx="20.4" cy="5.3" r="0.2"/>
	<g>
		<path class="st1" d="M18.6,8.5c-0.1,0.1-0.1,0.2-0.2,0.2l-0.6,0.3c0,0,0,0,0,0c0,0,0,0,0,0l0.6,0.3c0.1,0.1,0.2,0.1,0.2,0.2
			l0.3,0.6c0,0,0,0,0,0c0,0,0,0,0,0l0.3-0.6c0.1-0.1,0.1-0.2,0.2-0.2l0.6-0.3c0,0,0,0,0,0c0,0,0,0,0,0l-0.6-0.3
			c-0.1-0.1-0.2-0.1-0.2-0.2L19,8c0,0,0,0,0,0c0,0,0,0,0,0L18.6,8.5z"/>
	</g>
	<g>
		<path class="st1" d="M25.6,8.3c-0.1,0.1-0.1,0.2-0.2,0.2l-0.6,0.3c0,0,0,0,0,0c0,0,0,0,0,0l0.6,0.3c0.1,0.1,0.2,0.1,0.2,0.2
			l0.3,0.6c0,0,0,0,0,0c0,0,0,0,0,0l0.3-0.6c0.1-0.1,0.1-0.2,0.2-0.2L27,8.9c0,0,0,0,0,0c0,0,0,0,0,0l-0.6-0.3
			c-0.1-0.1-0.2-0.1-0.2-0.2l-0.3-0.6c0,0,0,0,0,0c0,0,0,0,0,0L25.6,8.3z"/>
	</g>
	<circle class="st1" cx="21.5" cy="7.3" r="0.2"/>
</g>
</svg>
