<?xml version="1.0" encoding="utf-8"?>
<!-- Generator: Adobe Illustrator 21.1.0, SVG Export Plug-In . SVG Version: 6.00 Build 0)  -->
<svg version="1.1" id="Layer_1" xmlns="http://www.w3.org/2000/svg" xmlns:xlink="http://www.w3.org/1999/xlink" x="0px" y="0px"
	 viewBox="0 0 35.5 36.4" style="enable-background:new 0 0 35.5 36.4;" xml:space="preserve">
<style type="text/css">
	.st0{fill:#FFFFFF;}
	.st1{fill:none;stroke:#AE9D63;stroke-linecap:round;stroke-linejoin:round;stroke-miterlimit:10;}
	.st2{fill:none;stroke:#AE9D63;stroke-width:0.7221;stroke-linecap:round;stroke-linejoin:round;stroke-miterlimit:10;}
</style>
<g>
	<g>
		<circle class="st0" cx="17.8" cy="18.2" r="16.8"/>
	</g>
	<g>
		<g>
			<path class="st1" d="M28.9,13.3l-23,3c-0.5,0.1-0.9,0.5-0.8,1.1l0.8,6.2C6,24.1,6.5,24.5,7,24.4l23-3c0.5-0.1,0.9-0.5,0.8-1.1
				L30,14.1C29.9,13.6,29.4,13.3,28.9,13.3z"/>
			<path class="st1" d="M19.8,14.5l-4.7,0.6c-0.9,0.1-1.6,1-1.5,1.9l0.6,4.7c0.1,0.9,1,1.6,1.9,1.5l4.7-0.6c0.9-0.1,1.6-1,1.5-1.9
				L21.7,16C21.6,15,20.7,14.4,19.8,14.5z"/>
			<g>
				<ellipse transform="matrix(0.987 -0.1605 0.1605 0.987 -2.934 1.5298)" class="st2" cx="8" cy="18.9" rx="0.3" ry="0.3"/>
				<ellipse transform="matrix(0.987 -0.1605 0.1605 0.987 -2.8421 1.97)" class="st2" cx="10.8" cy="18.6" rx="0.3" ry="0.3"/>
				<ellipse transform="matrix(0.987 -0.1605 0.1605 0.987 -3.3375 1.6126)" class="st2" cx="8.3" cy="21.5" rx="0.3" ry="0.3"/>
				<ellipse transform="matrix(0.987 -0.1605 0.1605 0.987 -3.2456 2.0504)" class="st2" cx="11.1" cy="21.1" rx="0.3" ry="0.3"/>
			</g>
			<g>
				<ellipse transform="matrix(0.987 -0.1605 0.1605 0.987 -2.3701 4.1635)" class="st2" cx="24.6" cy="16.8" rx="0.3" ry="0.3"/>
				<ellipse transform="matrix(0.987 -0.1605 0.1605 0.987 -2.2781 4.6037)" class="st2" cx="27.4" cy="16.4" rx="0.3" ry="0.3"/>
				<ellipse transform="matrix(0.987 -0.1605 0.1605 0.987 -2.7735 4.2463)" class="st2" cx="24.9" cy="19.3" rx="0.3" ry="0.3"/>
				<ellipse transform="matrix(0.987 -0.1605 0.1605 0.987 -2.6816 4.6841)" class="st2" cx="27.7" cy="18.9" rx="0.3" ry="0.3"/>
			</g>
		</g>
		<g>
			<ellipse transform="matrix(0.9923 -0.1242 0.1242 0.9923 -2.094 2.1032)" class="st1" cx="15.8" cy="17.8" rx="0.5" ry="0.5"/>
			<ellipse transform="matrix(0.9923 -0.1242 0.1242 0.9923 -2.0017 2.5911)" class="st1" cx="19.8" cy="17.3" rx="0.5" ry="0.5"/>
		</g>
		<path class="st1" d="M19.2,20.5c-0.1-0.6-0.6-1-1.2-0.9c-0.6,0.1-1,0.6-0.9,1.2"/>
	</g>
</g>
</svg>
