<?xml version="1.0" encoding="utf-8"?>
<!-- Generator: Adobe Illustrator 21.1.0, SVG Export Plug-In . SVG Version: 6.00 Build 0)  -->
<svg version="1.1" id="Layer_1" xmlns="http://www.w3.org/2000/svg" xmlns:xlink="http://www.w3.org/1999/xlink" x="0px" y="0px"
	 viewBox="0 0 35.5 36.4" style="enable-background:new 0 0 35.5 36.4;" xml:space="preserve">
<style type="text/css">
	.st0{clip-path:url(#SVGID_2_);fill:none;stroke:#AE9D63;stroke-linecap:round;stroke-linejoin:round;stroke-miterlimit:10;}
</style>
<g>
	<defs>
		<circle id="SVGID_1_" cx="17.8" cy="18.2" r="16.8"/>
	</defs>
	<use xlink:href="#SVGID_1_"  style="overflow:visible;fill:#FFFFFF;"/>
	<clipPath id="SVGID_2_">
		<use xlink:href="#SVGID_1_"  style="overflow:visible;"/>
	</clipPath>
	<path class="st0" d="M-5.8,21.1l11.6-0.8l6.4-5.1l3.4-3.9c0,0,1.2,0.8,1.1,2c0,0.8-1,1.8-1.6,2.5c-0.7,0.9-3.6,4.1-3.1,5
		c1.3,2.4,6.9,0.9,6.9,0.9s5.6-0.8,8.5-1s3.4,2,3.4,2l-10.9,1.9c0,0-2.8,1.3-5,1.7C13.1,26.7,6.3,26,6.3,26l-11.7,0.7L-5.8,21.1z"/>
	<polyline class="st0" points="22.1,14.9 25.1,18.2 28.1,14.9 	"/>
	<polyline class="st0" points="22.1,11.9 25.1,15.2 28.1,11.9 	"/>
</g>
</svg>
