<?xml version="1.0" encoding="utf-8"?>
<!-- Generator: Adobe Illustrator 21.1.0, SVG Export Plug-In . SVG Version: 6.00 Build 0)  -->
<svg version="1.1" id="Layer_1" xmlns="http://www.w3.org/2000/svg" xmlns:xlink="http://www.w3.org/1999/xlink" x="0px" y="0px"
	 viewBox="0 0 35.5 36.4" style="enable-background:new 0 0 35.5 36.4;" xml:space="preserve">
<style type="text/css">
	.st0{fill:#FFFFFF;}
	.st1{fill:none;stroke:#AE9D63;stroke-linecap:round;stroke-linejoin:round;stroke-miterlimit:10;}
</style>
<g>
	<g>
		<circle class="st0" cx="17.8" cy="18.2" r="16.8"/>
	</g>
	<g>
		<g>
			<g>
				<path class="st1" d="M13.5,28.1c0.3,0.3,0.8,0.4,1.3,0.3c0,0,0,0,0.1,0l9.6-0.9c0.8-0.2,1.2-0.9,1-1.7l-0.1-0.3"/>
			</g>
			<polyline class="st1" points="22.6,10.1 26.3,10.4 25.7,17 			"/>
			<path class="st1" d="M24.7,19.3c1.3,0.1,2.4,1.1,2.6,2.4c0.2,1.2-0.5,2.3-1.4,2.8"/>
			<polyline class="st1" points="24,16.3 27.1,17.7 26.1,19.8 			"/>
			<path class="st1" d="M16.5,27.8l8.3-1.9c0.8-0.2,1.3-1,1.1-1.8l-3.2-14c-0.1-0.5-0.4-1.1-0.8-1.2c-0.3-0.1-0.6,0-0.9,0.1
				c-1.8,0.9-10,2.3-10.3,2.4c-0.8,0.2-1.3,1-1.1,1.8l1.7,7.2"/>
			<path class="st1" d="M12.2,24.6l0.6,2.5c0.2,0.8,1,1.3,1.8,1.1l0.4-0.1"/>
			<polygon class="st1" points="15.3,28.5 16.7,27.5 7.8,16 6.4,15.6 6.5,17.1 			"/>
			<path class="st1" d="M17.1,28.1c0,0,0.8,0.7,0,1.4c-0.8,0.6-1.3-0.3-1.3-0.3L17.1,28.1z"/>
		</g>
		<g>
			<circle class="st1" cx="17.7" cy="23" r="0.3"/>
			<g>
				<polygon class="st1" points="18.3,13.8 17.7,20.6 17.1,13.8 				"/>
			</g>
		</g>
	</g>
</g>
</svg>
